<svg width="496" height="237" viewBox="0 0 496 237" fill="none" xmlns="http://www.w3.org/2000/svg">
<g clip-path="url(#clip0_14_12)">
<path d="M28.56 186V67H69.19C83.13 67 94.5767 69.4933 103.53 74.48C112.597 79.3533 119.283 86.2667 123.59 95.22C128.01 104.06 130.22 114.487 130.22 126.5C130.22 138.513 128.01 148.997 123.59 157.95C119.283 166.79 112.597 173.703 103.53 178.69C94.5767 183.563 83.13 186 69.19 186H28.56ZM50.32 167.3H68.17C78.1433 167.3 86.02 165.713 91.8 162.54C97.58 159.253 101.717 154.607 104.21 148.6C106.703 142.48 107.95 135.113 107.95 126.5C107.95 118 106.703 110.69 104.21 104.57C101.717 98.45 97.58 93.7467 91.8 90.46C86.02 87.1733 78.1433 85.53 68.17 85.53H50.32V167.3ZM177.979 188.04C170.726 188.04 164.776 186.907 160.129 184.64C155.483 182.26 152.026 179.143 149.759 175.29C147.493 171.437 146.359 167.187 146.359 162.54C146.359 154.72 149.419 148.373 155.539 143.5C161.659 138.627 170.839 136.19 183.079 136.19H204.499V134.15C204.499 128.37 202.856 124.12 199.569 121.4C196.283 118.68 192.203 117.32 187.329 117.32C182.909 117.32 179.056 118.397 175.769 120.55C172.483 122.59 170.443 125.65 169.649 129.73H148.399C148.966 123.61 151.006 118.283 154.519 113.75C158.146 109.217 162.793 105.76 168.459 103.38C174.126 100.887 180.473 99.64 187.499 99.64C199.513 99.64 208.976 102.643 215.889 108.65C222.803 114.657 226.259 123.157 226.259 134.15V186H207.729L205.689 172.4C203.196 176.933 199.683 180.673 195.149 183.62C190.729 186.567 185.006 188.04 177.979 188.04ZM182.909 171.04C189.143 171.04 193.959 169 197.359 164.92C200.873 160.84 203.083 155.797 203.989 149.79H185.459C179.679 149.79 175.543 150.867 173.049 153.02C170.556 155.06 169.309 157.61 169.309 160.67C169.309 163.957 170.556 166.507 173.049 168.32C175.543 170.133 178.829 171.04 182.909 171.04ZM281.875 188.04C274.395 188.04 267.821 186.85 262.155 184.47C256.488 181.977 251.955 178.577 248.555 174.27C245.155 169.963 243.115 164.977 242.435 159.31H264.365C265.045 162.597 266.858 165.43 269.805 167.81C272.865 170.077 276.775 171.21 281.535 171.21C286.295 171.21 289.751 170.247 291.905 168.32C294.171 166.393 295.305 164.183 295.305 161.69C295.305 158.063 293.718 155.627 290.545 154.38C287.371 153.02 282.951 151.717 277.285 150.47C273.658 149.677 269.975 148.713 266.235 147.58C262.495 146.447 259.038 145.03 255.865 143.33C252.805 141.517 250.311 139.25 248.385 136.53C246.458 133.697 245.495 130.24 245.495 126.16C245.495 118.68 248.441 112.39 254.335 107.29C260.341 102.19 268.728 99.64 279.495 99.64C289.468 99.64 297.401 101.963 303.295 106.61C309.301 111.257 312.871 117.66 314.005 125.82H293.435C292.188 119.587 287.485 116.47 279.325 116.47C275.245 116.47 272.071 117.263 269.805 118.85C267.651 120.437 266.575 122.42 266.575 124.8C266.575 127.293 268.218 129.277 271.505 130.75C274.791 132.223 279.155 133.583 284.595 134.83C290.488 136.19 295.871 137.72 300.745 139.42C305.731 141.007 309.698 143.443 312.645 146.73C315.591 149.903 317.065 154.493 317.065 160.5C317.178 165.713 315.818 170.417 312.985 174.61C310.151 178.803 306.071 182.09 300.745 184.47C295.418 186.85 289.128 188.04 281.875 188.04ZM336.341 186V63.6H358.101V114.6C360.934 109.953 364.731 106.327 369.491 103.72C374.364 101 379.918 99.64 386.151 99.64C396.578 99.64 404.624 102.927 410.291 109.5C416.071 116.073 418.961 125.707 418.961 138.4V186H397.371V140.44C397.371 133.187 395.898 127.633 392.951 123.78C390.118 119.927 385.584 118 379.351 118C373.231 118 368.131 120.153 364.051 124.46C360.084 128.767 358.101 134.773 358.101 142.48V186H336.341Z" fill="#2B2D42"/>
<line x1="28.9884" y1="24" x2="188.988" y2="24" stroke="#FF6A6A" stroke-width="20"/>
</g>
<defs>
<clipPath id="clip0_14_12">
<rect width="496" height="237" fill="white"/>
</clipPath>
</defs>
</svg>
