<svg width="638" height="271" viewBox="0 0 638 271" fill="none" xmlns="http://www.w3.org/2000/svg">
<path d="M31.9 192V73H88.17C101.317 73 112.877 75.4367 122.85 80.31C132.823 85.1833 140.587 92.04 146.14 100.88C151.807 109.72 154.64 120.26 154.64 132.5C154.64 144.627 151.807 155.167 146.14 164.12C140.587 172.96 132.823 179.817 122.85 184.69C112.877 189.563 101.317 192 88.17 192H31.9ZM65.56 165.14H86.81C93.61 165.14 99.5033 163.893 104.49 161.4C109.59 158.793 113.557 155.053 116.39 150.18C119.223 145.193 120.64 139.3 120.64 132.5C120.64 125.587 119.223 119.693 116.39 114.82C113.557 109.947 109.59 106.263 104.49 103.77C99.5033 101.163 93.61 99.86 86.81 99.86H65.56V165.14ZM227.089 192V174.83L224.879 170.58V138.96C224.879 133.86 223.293 129.95 220.119 127.23C217.059 124.397 212.129 122.98 205.329 122.98C200.909 122.98 196.433 123.717 191.899 125.19C187.366 126.55 183.513 128.477 180.339 130.97L169.459 109.04C174.673 105.64 180.906 103.033 188.159 101.22C195.526 99.2933 202.836 98.33 210.089 98.33C225.049 98.33 236.609 101.787 244.769 108.7C253.043 115.5 257.179 126.21 257.179 140.83V192H227.089ZM199.889 193.53C192.523 193.53 186.289 192.283 181.189 189.79C176.089 187.297 172.179 183.897 169.459 179.59C166.853 175.283 165.549 170.467 165.549 165.14C165.549 159.473 166.966 154.6 169.799 150.52C172.746 146.327 177.223 143.153 183.229 141C189.236 138.733 196.999 137.6 206.519 137.6H228.279V154.43H210.939C205.726 154.43 202.043 155.28 199.889 156.98C197.849 158.68 196.829 160.947 196.829 163.78C196.829 166.613 197.906 168.88 200.059 170.58C202.213 172.28 205.159 173.13 208.899 173.13C212.413 173.13 215.586 172.28 218.419 170.58C221.366 168.767 223.519 166.047 224.879 162.42L229.299 174.32C227.599 180.667 224.256 185.483 219.269 188.77C214.396 191.943 207.936 193.53 199.889 193.53ZM311.057 193.53C303.237 193.53 295.587 192.623 288.107 190.81C280.741 188.997 274.791 186.73 270.257 184.01L279.947 161.91C284.254 164.517 289.297 166.613 295.077 168.2C300.857 169.673 306.524 170.41 312.077 170.41C317.517 170.41 321.257 169.843 323.297 168.71C325.451 167.577 326.527 166.047 326.527 164.12C326.527 162.307 325.507 161.003 323.467 160.21C321.541 159.303 318.934 158.623 315.647 158.17C312.474 157.717 308.961 157.207 305.107 156.64C301.254 156.073 297.344 155.337 293.377 154.43C289.524 153.41 285.954 151.937 282.667 150.01C279.494 147.97 276.944 145.25 275.017 141.85C273.091 138.45 272.127 134.143 272.127 128.93C272.127 123.037 273.827 117.823 277.227 113.29C280.741 108.643 285.841 105.017 292.527 102.41C299.214 99.69 307.374 98.33 317.007 98.33C323.467 98.33 329.984 99.01 336.557 100.37C343.244 101.617 348.854 103.543 353.387 106.15L343.697 128.08C339.164 125.473 334.631 123.717 330.097 122.81C325.564 121.79 321.257 121.28 317.177 121.28C311.737 121.28 307.884 121.903 305.617 123.15C303.464 124.397 302.387 125.927 302.387 127.74C302.387 129.553 303.351 130.97 305.277 131.99C307.204 132.897 309.754 133.633 312.927 134.2C316.214 134.653 319.784 135.163 323.637 135.73C327.491 136.183 331.344 136.92 335.197 137.94C339.164 138.96 342.734 140.49 345.907 142.53C349.194 144.457 351.801 147.12 353.727 150.52C355.654 153.807 356.617 158.057 356.617 163.27C356.617 168.937 354.861 174.037 351.347 178.57C347.947 183.103 342.847 186.73 336.047 189.45C329.361 192.17 321.031 193.53 311.057 193.53ZM430.546 98.33C437.686 98.33 444.146 99.8033 449.926 102.75C455.706 105.583 460.239 110.003 463.526 116.01C466.926 122.017 468.626 129.78 468.626 139.3V192H436.326V144.57C436.326 137.997 434.966 133.237 432.246 130.29C429.639 127.23 425.956 125.7 421.196 125.7C417.796 125.7 414.679 126.493 411.846 128.08C409.013 129.553 406.803 131.877 405.216 135.05C403.629 138.223 402.836 142.36 402.836 147.46V192H370.536V65.86H402.836V126.04L395.356 118.39C398.869 111.703 403.686 106.717 409.806 103.43C415.926 100.03 422.839 98.33 430.546 98.33Z" fill="#1E1E1E"/>
<line x1="31.9884" y1="35" x2="191.988" y2="35" stroke="#FF6A6A" stroke-width="20"/>
<path d="M64.2 213.08V241H58.6V222.84L51.12 241H46.88L39.36 222.84V241H33.76V213.08H40.12L49 233.84L57.88 213.08H64.2ZM72.5766 216.2C71.5899 216.2 70.7632 215.893 70.0966 215.28C69.4566 214.64 69.1366 213.853 69.1366 212.92C69.1366 211.987 69.4566 211.213 70.0966 210.6C70.7632 209.96 71.5899 209.64 72.5766 209.64C73.5632 209.64 74.3766 209.96 75.0166 210.6C75.6832 211.213 76.0166 211.987 76.0166 212.92C76.0166 213.853 75.6832 214.64 75.0166 215.28C74.3766 215.893 73.5632 216.2 72.5766 216.2ZM75.3366 218.84V241H69.7366V218.84H75.3366ZM93.1494 218.52C95.7894 218.52 97.9227 219.36 99.5494 221.04C101.176 222.693 101.989 225.013 101.989 228V241H96.3894V228.76C96.3894 227 95.9494 225.653 95.0694 224.72C94.1894 223.76 92.9894 223.28 91.4694 223.28C89.9227 223.28 88.696 223.76 87.7894 224.72C86.9094 225.653 86.4694 227 86.4694 228.76V241H80.8694V218.84H86.4694V221.6C87.216 220.64 88.1627 219.893 89.3094 219.36C90.4827 218.8 91.7627 218.52 93.1494 218.52ZM110.155 216.2C109.168 216.2 108.341 215.893 107.675 215.28C107.035 214.64 106.715 213.853 106.715 212.92C106.715 211.987 107.035 211.213 107.675 210.6C108.341 209.96 109.168 209.64 110.155 209.64C111.141 209.64 111.955 209.96 112.595 210.6C113.261 211.213 113.595 211.987 113.595 212.92C113.595 213.853 113.261 214.64 112.595 215.28C111.955 215.893 111.141 216.2 110.155 216.2ZM112.915 218.84V241H107.315V218.84H112.915ZM145.968 218.52C148.688 218.52 150.874 219.36 152.528 221.04C154.208 222.693 155.048 225.013 155.048 228V241H149.448V228.76C149.448 227.027 149.008 225.707 148.128 224.8C147.248 223.867 146.048 223.4 144.528 223.4C143.008 223.4 141.794 223.867 140.888 224.8C140.008 225.707 139.568 227.027 139.568 228.76V241H133.968V228.76C133.968 227.027 133.528 225.707 132.648 224.8C131.768 223.867 130.568 223.4 129.048 223.4C127.501 223.4 126.274 223.867 125.368 224.8C124.488 225.707 124.048 227.027 124.048 228.76V241H118.448V218.84H124.048V221.52C124.768 220.587 125.688 219.853 126.808 219.32C127.954 218.787 129.208 218.52 130.568 218.52C132.301 218.52 133.848 218.893 135.208 219.64C136.568 220.36 137.621 221.4 138.368 222.76C139.088 221.48 140.128 220.453 141.488 219.68C142.874 218.907 144.368 218.52 145.968 218.52ZM158.922 229.84C158.922 227.6 159.362 225.613 160.242 223.88C161.148 222.147 162.362 220.813 163.882 219.88C165.428 218.947 167.148 218.48 169.042 218.48C170.695 218.48 172.135 218.813 173.362 219.48C174.615 220.147 175.615 220.987 176.362 222V218.84H182.002V241H176.362V237.76C175.642 238.8 174.642 239.667 173.362 240.36C172.108 241.027 170.655 241.36 169.002 241.36C167.135 241.36 165.428 240.88 163.882 239.92C162.362 238.96 161.148 237.613 160.242 235.88C159.362 234.12 158.922 232.107 158.922 229.84ZM176.362 229.92C176.362 228.56 176.095 227.4 175.562 226.44C175.028 225.453 174.308 224.707 173.402 224.2C172.495 223.667 171.522 223.4 170.482 223.4C169.442 223.4 168.482 223.653 167.602 224.16C166.722 224.667 166.002 225.413 165.442 226.4C164.908 227.36 164.642 228.507 164.642 229.84C164.642 231.173 164.908 232.347 165.442 233.36C166.002 234.347 166.722 235.107 167.602 235.64C168.508 236.173 169.468 236.44 170.482 236.44C171.522 236.44 172.495 236.187 173.402 235.68C174.308 235.147 175.028 234.4 175.562 233.44C176.095 232.453 176.362 231.28 176.362 229.92ZM193.071 211.4V241H187.471V211.4H193.071ZM201.444 216.2C200.457 216.2 199.63 215.893 198.964 215.28C198.324 214.64 198.004 213.853 198.004 212.92C198.004 211.987 198.324 211.213 198.964 210.6C199.63 209.96 200.457 209.64 201.444 209.64C202.43 209.64 203.244 209.96 203.884 210.6C204.55 211.213 204.884 211.987 204.884 212.92C204.884 213.853 204.55 214.64 203.884 215.28C203.244 215.893 202.43 216.2 201.444 216.2ZM204.204 218.84V241H198.604V218.84H204.204ZM218.217 241.36C216.403 241.36 214.777 241.04 213.337 240.4C211.897 239.733 210.75 238.84 209.897 237.72C209.07 236.6 208.617 235.36 208.537 234H214.177C214.283 234.853 214.697 235.56 215.417 236.12C216.163 236.68 217.083 236.96 218.177 236.96C219.243 236.96 220.07 236.747 220.657 236.32C221.27 235.893 221.577 235.347 221.577 234.68C221.577 233.96 221.203 233.427 220.457 233.08C219.737 232.707 218.577 232.307 216.977 231.88C215.323 231.48 213.963 231.067 212.897 230.64C211.857 230.213 210.95 229.56 210.177 228.68C209.43 227.8 209.057 226.613 209.057 225.12C209.057 223.893 209.403 222.773 210.097 221.76C210.817 220.747 211.83 219.947 213.137 219.36C214.47 218.773 216.03 218.48 217.817 218.48C220.457 218.48 222.563 219.147 224.137 220.48C225.71 221.787 226.577 223.56 226.737 225.8H221.377C221.297 224.92 220.923 224.227 220.257 223.72C219.617 223.187 218.75 222.92 217.657 222.92C216.643 222.92 215.857 223.107 215.297 223.48C214.763 223.853 214.497 224.373 214.497 225.04C214.497 225.787 214.87 226.36 215.617 226.76C216.363 227.133 217.523 227.52 219.097 227.92C220.697 228.32 222.017 228.733 223.057 229.16C224.097 229.587 224.99 230.253 225.737 231.16C226.51 232.04 226.91 233.213 226.937 234.68C226.937 235.96 226.577 237.107 225.857 238.12C225.163 239.133 224.15 239.933 222.817 240.52C221.51 241.08 219.977 241.36 218.217 241.36ZM238.053 223.44V234.16C238.053 234.907 238.227 235.453 238.573 235.8C238.947 236.12 239.56 236.28 240.413 236.28H243.013V241H239.493C234.773 241 232.413 238.707 232.413 234.12V223.44H229.773V218.84H232.413V213.36H238.053V218.84H243.013V223.44H238.053ZM266.213 241.28C264.266 241.28 262.506 240.947 260.933 240.28C259.386 239.613 258.159 238.653 257.253 237.4C256.346 236.147 255.879 234.667 255.853 232.96H261.853C261.933 234.107 262.333 235.013 263.053 235.68C263.799 236.347 264.813 236.68 266.093 236.68C267.399 236.68 268.426 236.373 269.173 235.76C269.919 235.12 270.293 234.293 270.293 233.28C270.293 232.453 270.039 231.773 269.533 231.24C269.026 230.707 268.386 230.293 267.613 230C266.866 229.68 265.826 229.333 264.493 228.96C262.679 228.427 261.199 227.907 260.053 227.4C258.933 226.867 257.959 226.08 257.133 225.04C256.333 223.973 255.933 222.56 255.933 220.8C255.933 219.147 256.346 217.707 257.173 216.48C257.999 215.253 259.159 214.32 260.653 213.68C262.146 213.013 263.853 212.68 265.773 212.68C268.653 212.68 270.986 213.387 272.773 214.8C274.586 216.187 275.586 218.133 275.773 220.64H269.613C269.559 219.68 269.146 218.893 268.373 218.28C267.626 217.64 266.626 217.32 265.373 217.32C264.279 217.32 263.399 217.6 262.733 218.16C262.093 218.72 261.773 219.533 261.773 220.6C261.773 221.347 262.013 221.973 262.493 222.48C262.999 222.96 263.613 223.36 264.333 223.68C265.079 223.973 266.119 224.32 267.453 224.72C269.266 225.253 270.746 225.787 271.893 226.32C273.039 226.853 274.026 227.653 274.853 228.72C275.679 229.787 276.093 231.187 276.093 232.92C276.093 234.413 275.706 235.8 274.932 237.08C274.159 238.36 273.026 239.387 271.533 240.16C270.039 240.907 268.266 241.28 266.213 241.28ZM293.428 218.52C295.108 218.52 296.601 218.893 297.908 219.64C299.214 220.36 300.228 221.44 300.948 222.88C301.694 224.293 302.068 226 302.068 228V241H296.468V228.76C296.468 227 296.028 225.653 295.148 224.72C294.268 223.76 293.068 223.28 291.548 223.28C290.001 223.28 288.774 223.76 287.868 224.72C286.988 225.653 286.548 227 286.548 228.76V241H280.948V211.4H286.548V221.6C287.268 220.64 288.228 219.893 289.428 219.36C290.628 218.8 291.961 218.52 293.428 218.52ZM317.233 241.36C315.099 241.36 313.179 240.893 311.473 239.96C309.766 239 308.419 237.653 307.433 235.92C306.473 234.187 305.993 232.187 305.993 229.92C305.993 227.653 306.486 225.653 307.473 223.92C308.486 222.187 309.859 220.853 311.593 219.92C313.326 218.96 315.259 218.48 317.393 218.48C319.526 218.48 321.459 218.96 323.193 219.92C324.926 220.853 326.286 222.187 327.273 223.92C328.286 225.653 328.793 227.653 328.793 229.92C328.793 232.187 328.273 234.187 327.233 235.92C326.219 237.653 324.833 239 323.073 239.96C321.339 240.893 319.393 241.36 317.233 241.36ZM317.233 236.48C318.246 236.48 319.193 236.24 320.073 235.76C320.979 235.253 321.699 234.507 322.233 233.52C322.766 232.533 323.033 231.333 323.033 229.92C323.033 227.813 322.473 226.2 321.353 225.08C320.259 223.933 318.913 223.36 317.313 223.36C315.713 223.36 314.366 223.933 313.273 225.08C312.206 226.2 311.673 227.813 311.673 229.92C311.673 232.027 312.193 233.653 313.233 234.8C314.299 235.92 315.633 236.48 317.233 236.48ZM338.501 222.04C339.221 221.027 340.207 220.187 341.461 219.52C342.741 218.827 344.194 218.48 345.821 218.48C347.714 218.48 349.421 218.947 350.941 219.88C352.487 220.813 353.701 222.147 354.581 223.88C355.487 225.587 355.941 227.573 355.941 229.84C355.941 232.107 355.487 234.12 354.581 235.88C353.701 237.613 352.487 238.96 350.941 239.92C349.421 240.88 347.714 241.36 345.821 241.36C344.194 241.36 342.754 241.027 341.501 240.36C340.274 239.693 339.274 238.853 338.501 237.84V251.56H332.901V218.84H338.501V222.04ZM350.221 229.84C350.221 228.507 349.941 227.36 349.381 226.4C348.847 225.413 348.127 224.667 347.221 224.16C346.341 223.653 345.381 223.4 344.341 223.4C343.327 223.4 342.367 223.667 341.461 224.2C340.581 224.707 339.861 225.453 339.301 226.44C338.767 227.427 338.501 228.587 338.501 229.92C338.501 231.253 338.767 232.413 339.301 233.4C339.861 234.387 340.581 235.147 341.461 235.68C342.367 236.187 343.327 236.44 344.341 236.44C345.381 236.44 346.341 236.173 347.221 235.64C348.127 235.107 348.847 234.347 349.381 233.36C349.941 232.373 350.221 231.2 350.221 229.84ZM365.61 222.04C366.33 221.027 367.317 220.187 368.57 219.52C369.85 218.827 371.303 218.48 372.93 218.48C374.823 218.48 376.53 218.947 378.05 219.88C379.597 220.813 380.81 222.147 381.69 223.88C382.597 225.587 383.05 227.573 383.05 229.84C383.05 232.107 382.597 234.12 381.69 235.88C380.81 237.613 379.597 238.96 378.05 239.92C376.53 240.88 374.823 241.36 372.93 241.36C371.303 241.36 369.863 241.027 368.61 240.36C367.383 239.693 366.383 238.853 365.61 237.84V251.56H360.01V218.84H365.61V222.04ZM377.33 229.84C377.33 228.507 377.05 227.36 376.49 226.4C375.957 225.413 375.237 224.667 374.33 224.16C373.45 223.653 372.49 223.4 371.45 223.4C370.437 223.4 369.477 223.667 368.57 224.2C367.69 224.707 366.97 225.453 366.41 226.44C365.877 227.427 365.61 228.587 365.61 229.92C365.61 231.253 365.877 232.413 366.41 233.4C366.97 234.387 367.69 235.147 368.57 235.68C369.477 236.187 370.437 236.44 371.45 236.44C372.49 236.44 373.45 236.173 374.33 235.64C375.237 235.107 375.957 234.347 376.49 233.36C377.05 232.373 377.33 231.2 377.33 229.84ZM389.959 216.2C388.973 216.2 388.146 215.893 387.479 215.28C386.839 214.64 386.519 213.853 386.519 212.92C386.519 211.987 386.839 211.213 387.479 210.6C388.146 209.96 388.973 209.64 389.959 209.64C390.946 209.64 391.759 209.96 392.399 210.6C393.066 211.213 393.399 211.987 393.399 212.92C393.399 213.853 393.066 214.64 392.399 215.28C391.759 215.893 390.946 216.2 389.959 216.2ZM392.719 218.84V241H387.119V218.84H392.719ZM410.532 218.52C413.172 218.52 415.306 219.36 416.932 221.04C418.559 222.693 419.372 225.013 419.372 228V241H413.772V228.76C413.772 227 413.332 225.653 412.452 224.72C411.572 223.76 410.372 223.28 408.852 223.28C407.306 223.28 406.079 223.76 405.172 224.72C404.292 225.653 403.852 227 403.852 228.76V241H398.252V218.84H403.852V221.6C404.599 220.64 405.546 219.893 406.692 219.36C407.866 218.8 409.146 218.52 410.532 218.52ZM433.378 218.48C435.031 218.48 436.484 218.813 437.738 219.48C438.991 220.12 439.978 220.96 440.698 222V218.84H446.338V241.16C446.338 243.213 445.924 245.04 445.098 246.64C444.271 248.267 443.031 249.547 441.378 250.48C439.724 251.44 437.724 251.92 435.378 251.92C432.231 251.92 429.644 251.187 427.618 249.72C425.618 248.253 424.484 246.253 424.218 243.72H429.778C430.071 244.733 430.698 245.533 431.658 246.12C432.644 246.733 433.831 247.04 435.218 247.04C436.844 247.04 438.164 246.547 439.178 245.56C440.191 244.6 440.698 243.133 440.698 241.16V237.72C439.978 238.76 438.978 239.627 437.698 240.32C436.444 241.013 435.004 241.36 433.378 241.36C431.511 241.36 429.804 240.88 428.258 239.92C426.711 238.96 425.484 237.613 424.577 235.88C423.697 234.12 423.257 232.107 423.257 229.84C423.257 227.6 423.697 225.613 424.577 223.88C425.484 222.147 426.698 220.813 428.218 219.88C429.764 218.947 431.484 218.48 433.378 218.48ZM440.698 229.92C440.698 228.56 440.431 227.4 439.898 226.44C439.364 225.453 438.644 224.707 437.738 224.2C436.831 223.667 435.858 223.4 434.818 223.4C433.778 223.4 432.818 223.653 431.938 224.16C431.058 224.667 430.338 225.413 429.778 226.4C429.244 227.36 428.978 228.507 428.978 229.84C428.978 231.173 429.244 232.347 429.778 233.36C430.338 234.347 431.058 235.107 431.938 235.64C432.844 236.173 433.804 236.44 434.818 236.44C435.858 236.44 436.831 236.187 437.738 235.68C438.644 235.147 439.364 234.4 439.898 233.44C440.431 232.453 440.698 231.28 440.698 229.92ZM481.698 221.72C481.698 223.213 481.338 224.613 480.618 225.92C479.925 227.227 478.818 228.28 477.298 229.08C475.805 229.88 473.911 230.28 471.618 230.28H466.938V241H461.338V213.08H471.618C473.778 213.08 475.618 213.453 477.138 214.2C478.658 214.947 479.791 215.973 480.538 217.28C481.311 218.587 481.698 220.067 481.698 221.72ZM471.378 225.76C472.925 225.76 474.071 225.413 474.818 224.72C475.565 224 475.938 223 475.938 221.72C475.938 219 474.418 217.64 471.378 217.64H466.938V225.76H471.378ZM484.234 229.84C484.234 227.6 484.674 225.613 485.554 223.88C486.461 222.147 487.674 220.813 489.194 219.88C490.741 218.947 492.461 218.48 494.354 218.48C496.007 218.48 497.447 218.813 498.674 219.48C499.927 220.147 500.927 220.987 501.674 222V218.84H507.314V241H501.674V237.76C500.954 238.8 499.954 239.667 498.674 240.36C497.421 241.027 495.967 241.36 494.314 241.36C492.447 241.36 490.741 240.88 489.194 239.92C487.674 238.96 486.461 237.613 485.554 235.88C484.674 234.12 484.234 232.107 484.234 229.84ZM501.674 229.92C501.674 228.56 501.407 227.4 500.874 226.44C500.341 225.453 499.621 224.707 498.714 224.2C497.807 223.667 496.834 223.4 495.794 223.4C494.754 223.4 493.794 223.653 492.914 224.16C492.034 224.667 491.314 225.413 490.754 226.4C490.221 227.36 489.954 228.507 489.954 229.84C489.954 231.173 490.221 232.347 490.754 233.36C491.314 234.347 492.034 235.107 492.914 235.64C493.821 236.173 494.781 236.44 495.794 236.44C496.834 236.44 497.807 236.187 498.714 235.68C499.621 235.147 500.341 234.4 500.874 233.44C501.407 232.453 501.674 231.28 501.674 229.92ZM518.383 222.28C519.103 221.107 520.037 220.187 521.183 219.52C522.357 218.853 523.69 218.52 525.183 218.52V224.4H523.703C521.943 224.4 520.61 224.813 519.703 225.64C518.823 226.467 518.383 227.907 518.383 229.96V241H512.783V218.84H518.383V222.28ZM535.475 223.44V234.16C535.475 234.907 535.649 235.453 535.995 235.8C536.369 236.12 536.982 236.28 537.835 236.28H540.435V241H536.915C532.195 241 529.835 238.707 529.835 234.12V223.44H527.195V218.84H529.835V213.36H535.475V218.84H540.435V223.44H535.475ZM556.743 218.52C559.383 218.52 561.516 219.36 563.143 221.04C564.77 222.693 565.583 225.013 565.583 228V241H559.983V228.76C559.983 227 559.543 225.653 558.663 224.72C557.783 223.76 556.583 223.28 555.063 223.28C553.516 223.28 552.29 223.76 551.383 224.72C550.503 225.653 550.063 227 550.063 228.76V241H544.463V218.84H550.063V221.6C550.81 220.64 551.756 219.893 552.903 219.36C554.076 218.8 555.356 218.52 556.743 218.52ZM591.508 229.44C591.508 230.24 591.455 230.96 591.348 231.6H575.148C575.282 233.2 575.842 234.453 576.828 235.36C577.815 236.267 579.028 236.72 580.468 236.72C582.548 236.72 584.028 235.827 584.908 234.04H590.948C590.308 236.173 589.082 237.933 587.268 239.32C585.455 240.68 583.228 241.36 580.588 241.36C578.455 241.36 576.535 240.893 574.828 239.96C573.148 239 571.828 237.653 570.868 235.92C569.935 234.187 569.468 232.187 569.468 229.92C569.468 227.627 569.935 225.613 570.868 223.88C571.802 222.147 573.108 220.813 574.788 219.88C576.468 218.947 578.402 218.48 580.588 218.48C582.695 218.48 584.575 218.933 586.228 219.84C587.908 220.747 589.202 222.04 590.108 223.72C591.042 225.373 591.508 227.28 591.508 229.44ZM585.708 227.84C585.682 226.4 585.162 225.253 584.148 224.4C583.135 223.52 581.895 223.08 580.428 223.08C579.042 223.08 577.868 223.507 576.908 224.36C575.975 225.187 575.402 226.347 575.188 227.84H585.708ZM601.196 222.28C601.916 221.107 602.849 220.187 603.996 219.52C605.169 218.853 606.503 218.52 607.996 218.52V224.4H606.516C604.756 224.4 603.423 224.813 602.516 225.64C601.636 226.467 601.196 227.907 601.196 229.96V241H595.596V218.84H601.196V222.28Z" fill="#848383"/>
</svg>
